
<svg mexport="1" xmlns="http://www.w3.org/2000/svg" xmlns:xlink="http://www.w3.org/1999/xlink" width="32" height="32" viewBox="0 0 32 32">
	<defs>
		<clipPath id="clipPath0:0:0">
			<path d="M0 0L32 0L32 32L0 32L0 0Z" fill-rule="nonzero" transform="matrix(1 0 0 1 0 0)"/>
		</clipPath>
	</defs>
	<g clip-path="url(#clipPath0:0:0)">
		<defs>
			<clipPath id="clipPath0:0:1">
				<path d="M0 0L32 0L32 32L0 32L0 0Z" fill-rule="nonzero" transform="matrix(1 0 0 1 -0 -0)"/>
			</clipPath>
		</defs>
		<g clip-path="url(#clipPath0:0:1)">
			<path d="M27.25 30L26 30L26 1.5C26 0.671562 25.3284 0 24.5 0L3.5 0C2.67156 0 2 0.671562 2 1.5L2 30L0.75 30C0.335813 30 0 30.3358 0 30.75L0 32L28 32L28 30.75C28 30.3358 27.6642 30 27.25 30ZM8 4.75C8 4.33581 8.33581 4 8.75 4L11.25 4C11.6642 4 12 4.33581 12 4.75L12 7.25C12 7.66419 11.6642 8 11.25 8L8.75 8C8.33581 8 8 7.66419 8 7.25L8 4.75ZM8 10.75C8 10.3358 8.33581 10 8.75 10L11.25 10C11.6642 10 12 10.3358 12 10.75L12 13.25C12 13.6642 11.6642 14 11.25 14L8.75 14C8.33581 14 8 13.6642 8 13.25L8 10.75ZM11.25 20L8.75 20C8.33581 20 8 19.6642 8 19.25L8 16.75C8 16.3358 8.33581 16 8.75 16L11.25 16C11.6642 16 12 16.3358 12 16.75L12 19.25C12 19.6642 11.6642 20 11.25 20ZM16 30L12 30L12 24.75C12 24.3358 12.3358 24 12.75 24L15.25 24C15.6642 24 16 24.3358 16 24.75L16 30ZM20 19.25C20 19.6642 19.6642 20 19.25 20L16.75 20C16.3358 20 16 19.6642 16 19.25L16 16.75C16 16.3358 16.3358 16 16.75 16L19.25 16C19.6642 16 20 16.3358 20 16.75L20 19.25ZM20 13.25C20 13.6642 19.6642 14 19.25 14L16.75 14C16.3358 14 16 13.6642 16 13.25L16 10.75C16 10.3358 16.3358 10 16.75 10L19.25 10C19.6642 10 20 10.3358 20 10.75L20 13.25ZM20 7.25C20 7.66419 19.6642 8 19.25 8L16.75 8C16.3358 8 16 7.66419 16 7.25L16 4.75C16 4.33581 16.3358 4 16.75 4L19.25 4C19.6642 4 20 4.33581 20 4.75L20 7.25Z" fill-rule="nonzero" transform="matrix(1 0 0 1 2 0)" fill="rgb(240, 131, 54)"/>
		</g>
	</g>
</svg>
